<?xml version="1.0" encoding="utf-8"?>
<!-- Generator: Adobe Illustrator 22.1.0, SVG Export Plug-In . SVG Version: 6.00 Build 0)  -->
<svg version="1.1" id="Layer_1" xmlns="http://www.w3.org/2000/svg" xmlns:xlink="http://www.w3.org/1999/xlink" x="0px" y="0px"
	 viewBox="0 0 4500 4500" style="enable-background:new 0 0 4500 4500;" xml:space="preserve">
<style type="text/css">
	.st0{display:none;fill:#ED8548;stroke:#000000;stroke-miterlimit:10;}
	.st1{fill:#4EADDB;stroke:#000000;stroke-miterlimit:10;}
	.st2{fill:#FFFFFF;stroke:#000000;stroke-miterlimit:10;}
</style>
<polyline class="st0" points="3566,1700 2716,1234 2532,1234 2526,1204.3 2342,1164 2120,1148 1806.5,1188.1 1370,1404 1176,1576 
	1072,1640 878,1888 812,1965 "/>
<polyline class="st0" points="1174,1654 1022,1694 786,2070 846,2428 890,2600 1106,2632 1466,2746.9 1693.8,2821.1 1921,2868.2 
	2228,2844.9 2607.1,2768.6 3040.5,2637.2 "/>
<polyline class="st1" points="1303.7,1517 1432.7,1444.7 1650.1,1302.9 2116.8,1204.3 2308.3,1220.5 2770.9,1294.7 2899.9,1387.7 
	2935.9,1483.7 2977.6,1779.5 2973.3,1887.6 2869.9,2128.8 2741.8,2400.7 2608.4,2494.8 2265,2679 2140.7,2714.8 1954.8,2701.9 
	1587.8,2569 1276.7,2290 1183.7,2134.8 1156.7,1681.8 "/>
<polygon class="st2" points="1918,1680 2066,1640 2265,1710 2382,1908 2355,2178 2118,2290 1904,2238 1780,1980 1780,1820 "/>
<g transform="translate(0.000000,4500.000000) scale(0.100000,-0.100000)">
	<path d="M17222.6,32688.4c1297,514,1734,635,2741,760c320,40,506,66,664,95c267,50,928,54,1550,10c282-20,1005-94,1012-104
		c4-6,8-36,8-67c0-82-5-84-158-73c-216,15-341,12-391-10c-48-22-71-58-71-112c0-29,7-44,35-69c66-63,278-131,585-190
		c145-27,939-157,1260-206c205-31,309-51,630-119c107-23,391-74,630-115s491-85,560-99c204-41,252-46,479-56c226-9,330-24,465-67
		c110-34,166-65,231-123c38-34,65-51,92-55c116-18,154-29,242-71c53-25,163-75,246-110c82-36,173-80,201-98c54-36,53-34,162-266
		c32-69,110-213,174-320c63-107,159-271,213-365c126-221,231-378,292-438c42-40,58-49,103-56c116-18,131-73,191-731
		c39-428,53-957,43-1665l-6-510l102-50c162-77,226-68,346,50c80,79,89,107,87,290c-4,362-86,1158-149,1444
		c-51,231-179,1050-224,1429c-11,94-29,248-40,342 M11307.6,28119.4c-49-147-68-274-80-548c-14-320,10-739,51-892c6-22,26-68,45-101
		c54-98,75-219,94-565c24-422,75-796,131-958c23-65,62-300,114-677c66-481,99-595,251-867c148-265,643-1081,699-1151
		c34-43,95-133,135-200c107-177,263-407,354-521c177-223,335-363,508-452c247-126,506-332,961-763c490-463,602-563,755-669
		c159-111,265-149,357-129c75,15,140,0,273-63c160-76,368-194,451-255c278-206,1697-769,2129-845c74-13,187,0,232,27
		c62,36,80,131,37,194c-74,110-304,234-808,437c-324,131-560,234-834,365c-132,63-289,136-349,161c-146,63-375,179-518,264
		c-64,39-184,107-266,152c-88,48-197,119-264,170c-301,234-756,638-1599,1419c-462,428-710,642-842,729c-93,60-121,101-147,220
		c-49,216-103,347-173,419c-49,51-90,62-140,38c-45-21-58-15-132,67c-139,154-378,555-438,738c-8,25-25,99-37,165
		c-11,66-36,180-55,255c-123,485-260,1833-242,2370c10,284,59,634,118,845c17,61,39,146,50,190c60,242,164,496,383,940
		c153,309,255,488,312,546c19,19,39,51,44,70c21,71-13,179-70,219c-16,12-30,28-30,36c0,64,304,311,755,614
		c648,435,839,527,1390,675c116,31,234,67,263,80c85,39,179,107,312,226c290,259,579,451,1105,734c215,116,330,180,579,324
		c88,50,164,90,170,88s20-41,32-86c26-99,47-131,100-150c74-26,169,20,344,165c68,56,241,142,380,188c146,49,795,238,1003,292
		c652,170,1605,346,1997,364c513,23,695,47,810,105c65,33,100,77,100,124c0,78-133,161-295,182c-127,17-492,2-1245-52
		c-781-55-1108-102-1560-224c-889-241-1777-593-2853-1131c-550-275-821-433-1118-651c-124-90-279-182-476-280
		c-190-96-245-109-317-79c-89,37-141,21-337-107c-123-80-257-152-267-142c-9,8,84,99,163,160c39,29,161,103,273,164
		 M23387.6,33855.4 M24029.6,33363.4c182-13,475-45,608-66c153-25,382-83,425-107c68-38,74-121,10-139c-44-12-292,9-490,42
		c-398,66-955,217-955,259C23627.6,33373.4,23801.6,33378.4,24029.6,33363.4z"/>
	<path d="M20373.6,30053.4c-43-52-87-208-93-332c-7-131,5-198,59-333c64-159,63-295-2-295c-26,0-38,26-50,110c-6,40-22,95-36,124
		c-79,153-96,193-134,308c-60,184-102,238-184,238c-49,0-90-19-155-70c-86-68-92-91-91-333c0-202-12-353-29-370
		c-15-15-67,67-155,243c-98,198-140,263-213,330c-72,66-141,88-221,70c-119-26-144-92-99-262c48-180,149-409,244-550
		c63-96,71-148,28-188c-63-59-186-12-338,127c-134,124-221,159-280,113c-14-11-31-36-37-55c-16-48-59-81-115-88c-35-5-58-16-86-42
		c-34-30-46-35-88-35c-52,0-148,30-254,81c-37,17-78,29-103,29c-51,0-136-42-185-91c-75-75-60-148,52-253c39-37,69-73,69-84
		s-16-39-35-63c-54-68-61-100-35-154s94-109,239-196c120-72,225-168,234-214c7-37-14-72-49-81c-37-10-116,17-274,93
		c-169,81-231,103-290,103c-75,0-85-18-85-150c0-102-2-110-25-135c-14-15-38-34-54-42c-45-23-118-95-132-130c-40-93,7-174,119-207
		c68-20,178-105,239-184c52-68,59-97,28-107c-11-4-77-10-148-14c-137-8-210-30-231-69c-31-58,2-137,93-227c59-57,78-69,151-91
		c27-9,30-14,33-57c3-42,1-48-21-56c-45-17-139-31-316-46c-95-8-176-17-179-19c-2-3-5-65-6-138c-1-161,11-196,103-286
		c86-85,159-130,228-143c32-6,76-21,99-34c87-51,162-169,185-290c13-73,8-190-9-207c-10-10-76-12-288-10c-291,3-363-4-408-39
		c-69-54-1-197,101-214c41-6,133-57,133-73c0-11-28-51-67-95c-21-23-33-47-33-66c0-32,93-226,139-288c58-80,100-92,366-103
		c116-5,224-13,240-18l30-10l-55-24c-30-14-113-42-183-61c-265-76-323-132-282-274c43-149,39-147,355-154c231-5,260-8,311-28
		c64-24,214-112,243-141c25-25,18-40-69-155c-109-143-144-216-160-337c-8-57-23-132-34-167c-44-135-36-282,17-342
		c37-42,90-48,179-21c134,41,280,150,350,261c42,67,98,127,135,147c40,21,75,18,81-6c10-38-15-96-106-244c-74-120-82-152-82-331
		c0-226,14-247,177-260c48-4,92-12,97-19c6-7,6-29-1-59c-13-63,5-167,39-225c29-50,70-72,137-72c70,0,147-34,215-95
		c110-98,183-94,284,14c93,101,201,339,272,602c43,160,69,213,107,217c45,5,62-33,55-121c-8-97-58-276-207-739c-7-24,0-35,73-119
		c107-121,163-161,231-166c78-6,106,16,160,129c69,144,209,572,252,772c5,22,14,41,20,43c20,7,25-78,18-302c-7-234-1-282,38-338
		c43-60,174-97,355-100c120-2,130,3,208,106c28,36,53,66,56,66c3,1,21-20,39-46c123-172,219-222,330-172c78,35,140,113,140,174
		c0,15,5,36,11,47c10,18,17,20,64,14c106-12,215,47,215,117c0,19-20,94-44,168s-47,147-50,162l-7,29l28-20c15-11,78-64,138-117
		c177-156,264-205,338-191c46,9,110,56,143,106c31,47,29,79-11,175c-30,73-33,115-7,115c27,0,178-38,277-70c101-32,229-60,275-60
		c21,0,43,11,71,37c101,91,149,296,94,404c-21,42-64,89-81,89c-20,0-56,58-61,100c-7,52,1,51,119-1c222-97,334-125,448-109
		c75,11,102,23,133,60c34,40,35,85,2,150c-25,49-32,94-17,117c13,21,79,43,127,43c65,0,89,26,83,91c-6,56-36,101-107,157l-47,37
		l126,1c109,0,134,3,198,26c186,67,242,151,174,259c-34,53-80,86-189,135c-46,20-83,40-83,44c0,13,58,30,190,56c80,15,148,35,187,54
		c132,65,232,193,220,282c-18,132-289,231-450,163c-73-30-126-12-113,39c11,45,128,179,386,441c140,143,272,285,293,316
		c46,67,56,122,33,167c-21,40-37,48-114,56c-76,9-135,29-176,60c-54,41-96,58-136,55c-22-2-42,0-45,3c-15,15,13,56,96,145
		c145,154,209,285,209,426c0,61-4,80-23,108c-56,83-138,79-297-13c-35-21-75-38-87-38c-20,0-23,5-23,38c0,110,121,484,175,542
		c90,97,84,163-23,242c-31,23-61,46-65,52c-13,18-1,70,37,155c39,89,66,183,66,230c0,20-10,42-28,62c-26,29-34,32-84,31
		c-94-1-186-52-318-177c-41-38-86-79-99-90l-24-20l6,135c4,74,16,221,28,325c11,105,22,262,22,350c2,148,0,164-21,206
		c-14,30-35,52-60,66c-78,43-89,41-221-50c-88-60-279-160-292-152c-13,9-11,99,7,348c9,120,13,233,10,252c-9,45-30,65-69,65
		c-95,0-154-44-220-167c-62-113-109-152-123-99c-8,34,11,97,63,210c36,78,47,113,51,168c5,68,4,71-48,174c-57,112-60,129-45,259
		c5,50,3,65-14,92c-44,71-126,88-215,44c-97-48-252-222-379-426c-63-102-117-165-141-165c-23,0-21,46,9,176c13,60,49,244,80,409
		l57,300l-69,63c-97,89-193,167-230,186c-39,20-105,21-141,2c-72-38-134-129-267-392c-100-197-153-283-192-314c-45-35-63-22-63,47
		c0,79-53,133-129,133c-86,0-162-54-211-150c-15-30-38-64-50-75l-22-20l-19,24c-28,34-112,188-228,416c-149,294-193,345-302,345
		C20405.6,30083.4,20396.6,30080.4,20373.6,30053.4z M21082.6,28539.4c257-64,718-242,955-369c232-124,390-237,564-407
		c251-244,440-520,700-1022c122-235,215-447,228-517c6-31,30-119,54-196c56-180,72-275,86-517c19-317-9-685-68-893
		c-162-577-607-1174-1144-1537c-227-153-413-241-743-350l-218-72l-267,67c-147,37-337,80-422,97c-313,60-384,84-680,231
		c-302,150-509,284-664,429c-292,274-696,858-967,1400c-103,207-196,433-223,540c-43,177-78,463-96,790c-15,282-13,425,9,487
		c17,51,173,270,179,253c2-5-4-55-12-112c-17-116-11-166,25-204c74-78,126-12,559,712c294,491,377,624,458,734
		c150,203,271,285,508,344c113,29,539,110,689,131C20741.6,28579.4,20954.6,28571.4,21082.6,28539.4z"/>
	<path d="M29707.6,27126.4c-23-8-70-55-85-84c-21-39-52-172-70-294c-24-171-39-209-106-273c-104-98-161-243-198-502
		c-16-112-29-159-74-275c-30-77-91-246-136-375c-194-560-265-749-388-1040c-101-237-187-403-239-462c-24-27-44-57-44-68
		c0-30-41-115-110-230c-117-195-783-1171-981-1437c-112-151-150-214-179-297c-32-94-225-375-388-566c-76-89-107-116-147-134
		c-95-41-857-658-1017-822c-58-61-82-113-73-164l6-38l-39,5c-34,5-53-1-121-38c-45-24-139-86-209-138c-185-138-356-248-529-340
		c-83-44-199-110-258-145c-58-36-172-92-253-126c-323-137-913-347-1218-434c-212-60-309-95-473-170c-487-222-532-321-232-499
		c158-94,212-97,426-23c328,112,790,311,1206,517c614,305,1158,617,1709,979c251,165,348,222,403,235c20,5,45,0,86-19
		c91-41,115-43,159-13c139,94,919,870,1217,1212c138,158,178,218,380,562c27,46,77,115,111,154c36,40,66,84,70,102
		c10,48,50,122,119,222c135,195,375,617,745,1310c312,585,369,701,450,920c40,110,102,266,136,346c94,219,208,638,359,1314
		c60,269,115,493,190,774c48,181,27,289-65,338C29806.6,27132.4,29743.6,27139.4,29707.6,27126.4z"/>
	<path d="M19481.6,18444.4c-22-10-50-31-62-46c-43-55-19-160,51-222c41-36,68-44,215-67c203-31,790-169,1127-264
		c184-52,274-66,387-59c107,6,198,34,255,78c102,78,183,133,233,159c106,54,179,139,180,208c0,32-25,76-54,95c-57,38-311,53-1131,67
		c-743,13-968,24-1011,51C19630.6,18469.4,19537.6,18469.4,19481.6,18444.4z"/>
</g>
</svg>
