<?xml version="1.0" encoding="utf-8"?>
<!-- Generator: Adobe Illustrator 22.1.0, SVG Export Plug-In . SVG Version: 6.00 Build 0)  -->
<svg version="1.1" id="Layer_1" xmlns="http://www.w3.org/2000/svg" xmlns:xlink="http://www.w3.org/1999/xlink" x="0px" y="0px"
	 viewBox="0 0 4500 4500" style="enable-background:new 0 0 4500 4500;" xml:space="preserve">
<style type="text/css">
	.st0{display:none;fill:#4EADDB;stroke:#000000;stroke-miterlimit:10;}
	.st1{display:none;fill:#FFFFFF;stroke:#000000;stroke-miterlimit:10;}
	.st2{fill:#ED8548;stroke:#000000;stroke-miterlimit:10;}
	.st3{fill:#ED8548;}
</style>
<polyline class="st0" points="1303.7,1517 1432.7,1444.7 1650.1,1302.9 2116.8,1204.3 2308.3,1220.5 2770.9,1294.7 2899.9,1387.7 
	2935.9,1483.7 2977.6,1779.5 2973.3,1887.6 2869.9,2128.8 2741.8,2400.7 2608.4,2494.8 2265,2679 2140.7,2714.8 1954.8,2701.9 
	1587.8,2569 1276.7,2290 1183.7,2134.8 1156.7,1681.8 "/>
<polygon class="st1" points="1918,1680 2066,1640 2265,1710 2382,1908 2355,2178 2118,2290 1904,2238 1780,1980 1780,1820 "/>
<polyline class="st2" points="1174,1654 1022,1694 786,2070 846,2428 890,2600 1106,2632 1466,2746.9 1693.8,2821.1 1921,2868.2 
	2228,2844.9 2607.1,2768.6 3040.5,2637.2 3274.5,2553.1 3796,1996 3780,1852 3566,1700 2716,1234 2532,1234 2526,1204.3 2342,1164 
	2120,1148 1806.5,1188.1 1370,1404 1176,1576 1072,1640 878,1888 812,1965 "/>
<g transform="translate(0.000000,4500.000000) scale(0.100000,-0.100000)">
	<path d="M13445,29860c648,435,839,527,1390,675c116,31,234,67,263,80c85,39,179,107,312,226c290,259,579,451,1105,734
		c215,116,330,180,579,324c88,50,164,90,170,88s20-41,32-86c26-99,47-131,100-150c74-26,169,20,344,165c68,56,241,142,380,188
		c146,49,795,238,1003,292c652,170,804,208,982,243c355,71,623,103,1015,121c513,23,695,47,810,105c65,33,100,77,100,124
		c0,78-133,161-295,182c-127,17-492,2-1245-52c-781-55-1108-102-1560-224c-889-241-1777-593-2853-1131c-550-275-821-433-1118-651
		c-124-90-279-182-476-280c-190-96-245-109-317-79c-89,37-141,21-337-107c-123-80-257-152-267-142c-9,8,84,99,163,160
		c39,29,161,103,273,164c282,155,412,235,533,328c466,358,1212,723,2614,1278c1297,514,1734,635,2741,760c320,40,506,66,664,95
		c267,50,928,54,1550,10c282-20,1005-94,1012-104c4-6,8-36,8-67c0-82-5-84-158-73c-216,15-341,12-391-10c-48-22-71-58-71-112
		c0-29,7-44,35-69c66-63,278-131,585-190c145-27,939-157,1260-206c205-31,309-51,630-119c107-23,391-74,630-115s491-85,560-99
		c204-41,252-46,479-56c226-9,330-24,465-67c110-34,166-65,231-123c38-34,65-51,92-55c116-18,154-29,242-71c53-25,163-75,246-110
		c82-36,173-80,201-98 M29580,30973c263-108,1119-517,1405-671c94-51,321-168,505-261s382-194,440-226s386-206,730-387
		c344-182,639-338,655-348c17-10,228-124,470-253c631-337,738-400,933-556c208-165,351-320,1012-1091c233-272,524-610,645-750
		c238-274,377-444,465-566c80-112,270-305,353-361c39-26,115-64,170-84c131-50,180-75,211-106c73-73,35-170-190-485
		c-159-222-374-506-435-573c-32-36-96-116-142-178c-197-264-629-711-1832-1894c-985-969-1192-1176-1306-1308
		c-112-131-129-157-129-195c0-73,92-206,185-268c133-88,184-54,690,459c309,313,701,724,1621,1699c852,903,937,997,1282,1429
		c264,329,403,481,557,609c235,194,338,308,405,447c45,93,77,215,86,331c8,96-4,141-52,200c-49,60-51,87-14,180
		c47,117,41,129-140,285c-95,82-120,108-120,128c0,45,58,531,85,717c83,569,174,842,436,1309c114,204,121,251,50,319
		c-66,63-151,37-268-81c-203-206-435-662-643-1268c-63-183-140-375-164-408c-20-26-53-9-142,74c-85,78-203,172-349,275
		c-78,55-95,72-95,93c0,14,7,159,15,321c41,817,91,1048,338,1543c143,288,167,348,167,415c0,59-43,104-118,121
		c-106,26-168-10-262-151c-148-219-573-1175-664-1490c-14-48-30-84-38-86c-29-6-120,70-338,283c-240,234-392,370-549,487
		c-53,40-122,98-154,130c-50,50-57,61-51,85c3,15,53,168,111,338c57,171,175,519,262,775c235,694,259,800,199,900
		c-47,81-120,96-206,43c-66-41-109-102-216-313c-259-508-558-1197-600-1383l-22-98l-210,183c-116,101-270,235-344,298
		c-147,127-227,216-268,300c-25,52-27,63-26,190c0,165,17,231,183,760c199,628,241,793,241,934c0,89-15,132-59,169
		c-156,131-380-206-569-853c-105-360-195-887-209-1220c-8-202,4-240,132-404c25-32,44-61,41-63c-7-7-166,79-418,228
		c-253,149-673,386-805,453c-100,52-166,113-161,148c5,33,47,57,123,68c218,32,229,97,54,301c-45,52-92,111-106,131
		c-72,106-49,238,132,780c227,681,338,1105,321,1221c-10,68-32,82-126,81c-130-2-192-45-282-196c-50-85-153-322-253-588
		c-109-290-300-771-342-862c-40-86-53-95-128-78c-86,19-187,79-297,176c-82,72-224,143-391,195c-204,63-323,128-424,229
		c-157,157-220,352-210,645c10,284,68,473,230,744c79,132,119,232,125,313c6,86-1,110-44,158c-66,73-122,64-213-36
		c-114-124-332-547-429-829c-98-285-114-472-57-664c14-47,25-104,25-128c0-39-2-43-25-43c-82,0-592,254-925,461
		c-216,133-248,174-257,324c-17,270,137,636,410,971c83,103,106,178,69,224c-15,18-33,24-89,29c-84,8-95,16-164,117
		c-26,40-60,81-75,93c-59,47-141,46-190,0c-29-27-78-153-172-439c-136-414-241-777-265-918c-8-45-22-94-32-108c-16-25-21-26-70-20
		c-189,22-810,329-973,481l-55,51l13,89c41,292,233,871,386,1162c86,165,77,202-100,371c-142,135-213,161-280,101
		c-46-40-76-106-126-275c-23-76-75-245-115-374c-41-129-99-323-129-430c-31-107-74-249-96-315c-26-77-45-152-51-209
		c-15-143-45-169-164-143c-38,8-140,33-225,55c-85,21-211,49-280,61c-198,35-359,71-396,88c-43,21-52,49-64,195s-12,678,0,835
		c12,150,23,198,70,293c57,114,64,143,46,178c-35,68-177,126-295,120c-67-3-75-6-101-34c-44-50-139-367-215-718
		c-44-202-74-399-85-556c-19-262-23-267-205-257c-150,9-508,54-572,72c-64,19-117,63-135,113c-21,59-13,285,21,627
		c68,689,67,799-13,954c-26,50-86,111-109,111c-80,0-391-523-482-811c-47-150-49-261-10-623c21-193,20-223-6-237
		c-28-14-132-4-219,23c-36,11-118,48-183,81c-111,58-120,61-185,60c-37-1-123-13-192-26c-245-49-289-45-328,34c-15,30-26,79-32,135
		c-20,184-6,952,21,1194c26,234,29,284,19,322c-27,97-154,100-345,9c-140-67-240-176-293-323c-27-73-27-73-24-334
		c3-250,2-268-23-390c-32-154-28-186,40-335c59-129,85-196,85-219c0-45-151-64-505-65c-267,0-293,2-329,19c-48,24-90,88-116,176
		c-43,148-170,943-170,1067c1,146,55,208,161,183c64-16,103-6,146,37c44,44,93,146,93,193c0,44-46,126-96,170l-38,33l-85-6
		c-110-7-266-48-359-94s-170-126-194-203c-22-69-62-320-83-510c-34-317-47-419-62-503c-8-50-13-108-9-133c6-46,49-135,116-243
		c22-36,45-81,50-100c9-31,7-38-10-53c-53-43-265-30-372,23c-66,33-108,110-143,262c-19,83-150,880-170,1031c-8,66-20,194-26,285
		c-17,271-60,396-153,440c-49,24-41,24-89,7c-51-18-112-62-147-104c-59-72-61-138-25-712c13-217,29-498,35-625
		c13-299,31-387,117-559c24-48,42-94,39-101c-6-16-149-103-237-145c-74-35-143-41-157-12c-5,9-12,58-15,107
		c-17,240-248,1658-288,1762c-12,31-67,63-109,63c-130-1-288-185-378-441c-71-202-106-452-90-642c17-204,59-329,220-652
		c135-271,154-319,140-349c-16-36-70-72-137-93c-52-15-96-18-315-18c-373,0-365-5-381,267c-11,176-4,948,11,1313
		c12,284,3,321-79,319c-78-2-228-104-310-211c-133-171-201-422-201-734c0-234,23-393,114-789c42-178,54-305,37-368
		c-16-58-69-108-166-159c-206-107-586-228-657-209c-13,3-40,29-62,58c-119,164-159,336-159,683c0,228,10,342,59,647
		c19,119,39,265,45,325c23,240-25,384-147,443c-78,38-142,26-220-42c-49-43-79-107-120-256c-62-226-200-945-239-1245
		c-20-160-19-225,6-292c34-90,259-412,365-521c60-61,68-79,54-115c-17-41-62-65-176-94c-127-33-237-86-344-165
		c-238-177-324-190-440-63c-75,81-165,225-201,317c-64,165-94,360-124,786c-44,647-94,840-215,840c-28,0-54-12-111-52
		c-83-58-289-254-321-306l-21-34l23-86c49-186,233-700,489-1365c89-230,159-422,156-427s-58-41-122-81c-137-85-263-178-295-218
		c-51-63-219-147-415-206c-145-44-177-45-232-2c-128,97-293,407-385,724c-66,229-97,419-111,682c-8,156-31,308-50,337s-75,40-125,25
		c-81-24-188-150-216-253c-35-129-27-498,17-742c71-394,202-708,404-971c133-174,142-206,58-234c-28-10-72-35-98-57
		c-116-98-276-175-519-248c-171-52-295-73-335-56c-88,36-222,242-410,630c-156,323-198,440-172,489c7,12,55,42,117,71
		c127,61,147,85,141,172c-4,73-62,192-116,241c-44,39-109,62-150,52c-56-14-241-227-351-405c-70-112-93-174-86-229
		c15-114,104-324,331-791c197-403,229-488,229-615c1-83-2-96-35-165c-89-185-400-511-629-659c-85-55-106-60-135-30
		c-53,55-161,277-373,769c-230,534-314,698-397,780c-83,81-134,52-221-125c-145-296-126-484,96-975c102-225,289-596,345-685
		c66-105,94-137,151-170c42-25,84-79,84-107c0-54-482-420-702-533c-67-35-78-38-93-25c-57,47-358,499-603,904
		c-113,189-169,289-197,359c-29,71-56,105-103,134c-68,42-154,21-230-55c-51-51-67-117-58-236c21-261,67-381,313-809
		c160-280,232-400,335-559c119-183,143-237,143-313c0-46-7-73-29-117c-46-91-374-522-393-516c-25,8-188,242-298,428
		c-213,361-419,684-504,790c-82,102-122,119-187,79c-45-27-168-172-199-232l-24-49l24-53c32-73,167-317,349-628
		c287-492,395-697,430-816c25-85,22-105-24-144c-80-68-407-235-533-272c-50-14-59-14-84-1c-67,35-145,143-301,422
		c-159,285-291,475-426,613c-148,152-196,172-254,106c-40-45-46-82-38-234c13-262,46-379,151-536c118-178,512-696,616-811
		c61-68,63-96,14-195c-39-77-182-293-247-373c-73-90-142-156-162-156c-53,0-102,80-564,940c-224,417-232,430-281,468
		c-64,48-110,45-166-11c-58-57-79-128-80-262c0-160,41-271,295-795c378-781,432-937,386-1120c-18-71-64-171-82-177
		c-32-11-203,183-511,578c-122,156-259,329-305,384c-174,209-269,285-339,270c-65-15-220-193-235-270c-8-45,22-103,225-433
		c139-225,266-441,419-707c91-158,301-355,415-389c41-13,6-136-77-270c-65-104-107-191-113-233c-8-54-66-170-114-225
		c-52-61-79-63-146-10c-167,133-474,543-824,1099c-133,212-235,354-321,448c-63,69-81,79-111,64c-32-16-116-99-133-131
		c-19-37-18-94,5-159c40-118,104-223,481-794c465-704,671-1035,692-1110c22-82-18-192-174-475c-233-424-262-498-238-587
		c19-65,123-173,167-173c4,0,55,50,113,110c58,61,111,110,118,110c16,0,16-75-2-177c-23-127-21-126-124-118c-112,9-143-3-208-82
		c-103-122-304-424-304-455c0-37,207-238,245-238c26,0,94,70,169,173c59,80,88,97,100,55c11-41,6-91-15-167c-78-276,99-854,489-1596
		c101-192,257-464,321-559c73-109,69-108,277-111c157-2,192-5,284-29c127-33,287-56,394-56c187,0,417,57,586,146
		c170,90,251,162,572,506c185,198,372,326,529,362c271,62,1095,38,1404-40c212-54,777-250,905-313c78-39,202-91,620-257
		c135-53,369-149,520-211c339-141,634-252,794-299c100-30,141-37,236-40c104-4,126-9,230-46c287-102,371-128,451-137
		c364-44,336-38,989-204c524-133,731-176,880-184c105-5,120-4,168,17c140,60,148,170,19,257c-66,45-338,149-465,179
		c-59,14-260,69-447,124c-350,101-682,193-840,230c-111,27-236,86-295,140c-70,64-126,100-213,137c-159,67-337,106-537,118
		c-208,12-398,50-909,181c-344,87-504,140-851,279c-328,132-536,199-840,274c-135,33-321,83-415,111c-359,110-569,151-940,185
		c-235,21-400,43-465,61c-143,40-251,144-316,304c-28,70-164,733-214,1045c-17,110-63,391-100,625c-150,924-178,1240-167,1875
		c12,636,82,1220,209,1720c128,507,245,689,949,1486c134,151,282,319,329,373c93,108,192,200,350,326c223,178,411,355,443,416
		c20,38,22,65,13,147c-7,59-5,73,15,115c38,82,458,482,505,482c46,0,37-109-26-294 M23952,33110c182-13,475-45,608-66
		c153-25,382-83,425-107c68-38,74-121,10-139c-44-12-292,9-490,42c-398,66-955,217-955,259C23550,33120,23724,33125,23952,33110z
		 M36232,27541c106-47,218-158,360-358c109-153,137-183,242-267c50-40,141-117,201-171c179-159,260-205,358-205c88,0,93-8,100-157
		c6-146,21-207,97-373c52-114,77-187,67-196c-53-53-452,337-877,856c-311,380-650,843-650,888C36130,27577,36163,27572,36232,27541z
		 M7648,23430c31-34,43-92,58-293c27-357,72-667,154-1042c75-340,551-2335,646-2705c115-446,114-432,51-493
		c-109-106-406-320-627-452c-80-48-178-111-218-139c-71-49-76-51-142-51c-53,0-73,4-89,19c-47,43-5,116,67,116c22,0,56-7,75-15
		c54-22,66-19,113,29c54,57,109,171,128,266c22,111,37,362,39,655c2,253,1,261-21,303c-25,47-119,126-170,143c-18,6-44,8-57,5
		c-50-13-99-161-95-286c7-208,4-264-19-330c-38-111-98-222-163-302c-75-91-121-165-156-250c-32-79-40-217-19-325c8-40,10-73,5-73
		c-16,0-203,98-245,129c-28,20-43,39-43,53c0,12,40,81,89,155c67,99,92,146,100,185c7,32,13,232,15,498c4,432,11,593,41,904
		c18,176,19,355,4,411c-16,57-35,75-80,75c-107,0-141-63-164-307c-14-154-32-198-111-285c-93-100-104-134-140-413
		c-29-230-56-359-91-429c-27-54-31-98-18-223c8-80,7-83-13-83c-27,0-69,52-79,98c-16,76-7,400,16,552c28,183,85,499,111,610
		c10,47,31,175,45,285s37,272,52,360c33,200,37,355,9,434c-31,89-20,169,46,336c66,166,330,764,458,1037c180,381,279,605,311,702
		s68,156,94,156C7623,23450,7638,23441,7648,23430z"/>
	<path d="M38538,24758c-459-446-1613-1627-1999-2048c-63-69-222-250-352-403c-424-496-1127-1292-1467-1662c-97-104-261-284-365-400
		c-327-363-498-545-651-695c-142-138-199-185-444-362c-140-101-210-175-210-222c0-56,72-126,130-126c11,0,61,16,110,35
		c100,39,125,43,134,19c16-42,27-448,21-789l-7-370l73-60c123-102,175-124,229-95c27,14,65,84,85,152c36,126,36,659,0,928
		c-8,63-15,145-15,181c0,61,2,67,26,78c49,22,117,88,297,286c246,271,544,567,646,640c46,33,102,76,124,95c44,40,47,59,32,186
		c-9,80-2,124,20,124c25,0,167,116,355,290c204,190,284,255,300,245c32-20-6-146-77-250c-56-84-108-190-143-294
		c-25-75-30-105-30-190c0-77-5-112-20-151c-29-73-25-110,16-189c26-51,39-90,46-148c27-210,170-521,254-554c30-11,79,8,111,42
		c45,50,58,119,58,314c0,173-1,182-28,246c-34,82-34,133-1,212c55,129,30,193-102,258c-71,35-84,45-84,66c0,40,37,99,87,140
		c92,74,139,132,215,259c83,140,138,252,162,334c14,47,14,56,0,88c-8,21-31,54-51,74c-52,53-52,54,130,279c37,46,79,107,92,135
		c39,83,255,353,507,635c305,342,411,459,413,459c3,0-53-270-78-380c-34-147-42-270-42-680c0-533,18-716,85-855
		c83-174,160-181,210-19c28,93,47,244,70,559c65,903,131,1240,334,1712c35,83,69,168,75,189c12,43,0,81-42,130
		c-64,76-44,105,518,744c335,380,587,676,640,750c32,46,65,140,65,187c0,79-66,153-137,153C38833,25040,38803,25014,38538,24758z"/>
	<path d="M33318,20316c-52-14-140-75-296-205c-264-219-333-258-478-271c-128-12-197-36-303-109c-47-32-158-100-246-151
		c-384-223-534-353-535-461c0-38,32-74,108-118c71-42,85-58,96-109c10-43,58-82,102-82c82,0,137,33,475,287c123,93,350,260,504,372
		c395,288,585,437,712,557c103,99,94,233-21,285C33388,20333,33381,20333,33318,20316z"/>
	<path d="M30165,18766c-110-36-339-125-595-231c-457-189-551-226-601-235c-58-11-95-26-352-143c-204-93-273-130-332-177
		c-45-36-98-52-260-80c-145-25-273-56-339-82c-75-29-218-64-399-97c-339-63-528-150-572-265c-15-39-15-46-1-79c10-26,23-38,43-43
		c67-15,123-37,198-80c202-115,262-113,691,31c539,181,780,286,895,392c87,79,136,102,332,153c317,81,744,248,1131,442
		c199,99,271,145,329,207c62,66,80,105,72,149c-16,87-81,162-138,162C30249,18789,30204,18779,30165,18766z"/>
	<path d="M32100,18490c-213-40-487-119-585-168c-27-14-68-42-89-64c-75-74-461-317-856-538c-501-280-897-453-1992-874
		c-656-252-726-285-755-354c-22-54-40-70-123-112c-130-65-294-113-508-150c-139-23-262-54-537-133c-187-54-378-97-434-97
		c-82,0-408-102-1146-357c-954-331-1193-403-1335-406c-91-2-125,13-171,78c-52,73-144,105-300,105c-88,0-162-14-228-42
		c-96-41-444-68-853-67c-324,1-336,2-363,53c-11,21-43,62-71,91c-42,42-63,55-105,66c-68,16-259,16-795-1c-506-16-816-10-964,19
		c-210,41-385,59-895,96c-393,28-488,39-559,60c-28,8-157,36-289,60c-233,44-1172,239-1787,371c-852,183-1297,296-1669,425
		c-222,78-857,289-1516,504c-843,276-1758,590-2100,722c-220,84-249,93-317,93c-73,0-97-20-146-120l-37-75l-40,2
		c-42,1-271,72-545,169c-152,53-173,58-270,62c-127,5-178-7-231-55c-77-69-90-140-41-209c29-40,49-55,188-143c44-28,88-59,98-69
		c15-18,14-22-26-68c-23-27-86-95-139-150c-112-116-190-230-259-377c-109-234-155-457-118-579c16-54,77-108,123-108
		c37,0,92,39,112,82c6,12,27,57,46,98c88,188,477,725,621,858c119,110,283,119,533,31c87-31,392-164,405-177c4-4-31-79-79-167
		c-132-248-237-463-266-552c-30-92-27-116,26-218c42-78,174-215,209-215c38,0,96,57,180,177c95,135,241,376,264,434
		c23,60,95,160,174,242c83,87,101,92,271,72c317-36,875-192,913-254c14-23-270-548-456-842c-174-275-203-367-159-508
		c24-78,61-140,106-180c110-96,221,22,453,479c193,383,305,552,482,732c145,147,176,163,310,162c119-1,213-24,575-145
		c282-94,416-151,450-188l19-22l-53-107c-29-59-123-236-208-394c-268-500-289-555-278-747c11-212,31-251,127-251c43,0,54,5,93,41
		c59,55,110,137,320,514c321,578,442,756,530,785s463-67,850-217c170-65,367-161,415-201l35-30l-13-46c-13-49-137-343-267-630
		c-129-287-139-336-91-441c49-108,126-165,203-150c39,7,116,72,139,118c9,16,40,103,69,193c134,406,347,789,485,872
		c91,54,162,48,819-74c980-181,902-164,932-202c41-52,24-106-150-474c-189-402-243-551-244-673c-1-90,30-138,107-170
		c113-47,189,39,347,392c44,98,145,311,224,473c140,286,195,421,195,475c0,30,40,75,67,75c245-1,1462-155,1656-210
		c33-10,37-14,31-33c-20-69-70-179-181-401c-254-509-295-670-208-821c54-94,110-109,212-60c90,44,98,59,279,490
		c128,306,273,578,360,674c57,63,101,87,189,101c161,26,988,40,1129,20c39-6,84-19,100-28c27-16,31-24,30-63c0-39-15-71-101-220
		c-55-96-119-210-141-254c-91-182-230-575-239-676c-7-76,16-144,67-194c34-33,47-39,94-43c43-3,65,1,111,22c115,52,173,122,162,193
		c-4,20-20,61-37,94c-16,32-30,68-30,81c0,51,125,225,318,442c157,178,308,304,450,375c101,51,758,223,1183,310
		c136,28,345,74,465,102c255,59,383,72,414,44c27-24,26-32-19-138c-92-217-290-780-312-886c-18-84-3-125,73-207
		c103-109,161-124,230-57c60,58,115,184,231,533c140,422,207,561,338,704c127,140,343,260,719,401c300,113,524,212,1150,507
		c408,193,530,241,530,210c0-6-50-120-111-254c-223-488-329-804-329-980c0-204,148-306,266-184c53,55,122,177,168,296
		c84,216,178,402,389,770s344,576,457,715c114,140,175,182,528,364c262,135,401,217,492,285c102,79,204,142,390,244
		c206,112,381,198,423,208c26,6,27,4,27-29c0-47-37-163-120-377c-142-367-280-786-280-853c0-42,24-80,105-166c91-96,124-116,169-101
		c100,33,168,183,211,464c31,205,109,392,257,617c158,243,618,824,810,1026c43,45,85,98,93,117c23,54,19,103-10,131
		c-21,22-33,25-87,24C32223,18509,32152,18500,32100,18490z"/>
	<path d="M25415,17403c-123-14-196-27-251-44c-121-37-322-53-964-74c-772-25-959-45-1019-109c-40-42-23-77,92-189
		c55-54,98-99,96-101s-44-27-93-56c-192-113-243-204-144-257c42-22,231-21,448,2c420,44,453,44,534,1c57-30,94-32,180-10
		c137,35,304,139,357,223c33,51,36,81,13,116c-9,13-13,28-10,33s53,12,111,15c79,4,118,11,151,27c60,30,139,38,467,50
		c455,16,553,35,650,128c52,50,64,99,38,156c-24,54-49,71-125,85C25892,17409,25488,17412,25415,17403z"/>
	<path d="M18090,17043c-61-9-77-18-131-74c-61-63-61-64-179-60c-74,3-592,77-706,102c-81,17-95,18-137,5c-53-16-162-90-201-136
		c-14-18-26-42-26-55c0-49,136-132,285-175c39-11,129-24,205-30c192-14,378-40,925-130c264-44,616-100,782-125l303-47l69,62
		c129,115,168,201,122,276c-36,59-123,93-320,123c-94,15-220,56-358,120c-137,62-268,106-375,125
		C18261,17039,18132,17049,18090,17043z"/>
	<path d="M22098,16770c-359-60-508-166-388-274c50-45,138-89,221-112c86-24,251-24,344,0c88,22,277,114,333,162c36,31,42,41,42,75
		c0,56-72,130-149,153C22428,16795,22237,16794,22098,16770z"/>
</g>
<g id="Layer_2">
	<path class="st3" d="M1099.6,1705.4c0,0,233.2-185.5,268.5-207s1396.4-152,1411.9-157.9c15.5-5.9,189.5,67.2,189.5,67.2
		L2170.4,1734l-778.4,28L1099.6,1705.4z"/>
</g>
</svg>
